<svg xmlns="http://www.w3.org/2000/svg" xmlns:xlink="http://www.w3.org/1999/xlink" id="Camada_1" x="0px" y="0px" viewBox="0 0 280 100" style="enable-background:new 0 0 280 100;" xml:space="preserve"><style type="text/css">	.st0{fill:#FFFFFF;}	.st1{fill-rule:evenodd;clip-rule:evenodd;fill:#E94D49;}	.st2{fill-rule:evenodd;clip-rule:evenodd;fill:#FFFFFF;}</style><g>	<path class="st0" d="M127.1,79.5c-0.2,1.5-0.6,2.9-1.2,4.2c-0.6,1.3-1.4,2.5-2.5,3.4c-1.1,1-2.5,1.7-4.3,2.3  c-1.7,0.6-3.8,0.9-6.3,0.9h-1.2c-1.7,0-3.3-0.1-5-0.2c-1.6-0.1-3.2-0.3-4.7-0.5l3.1-21.9c1.6-0.2,3.2-0.4,4.8-0.5  c1.7-0.1,3.3-0.2,5-0.2h1.2c2.5,0,4.5,0.3,6.1,0.9s2.8,1.3,3.6,2.3c0.9,1,1.4,2.1,1.6,3.4s0.2,2.7,0,4.2L127.1,79.5z M112.5,85.1  c2,0,3.5-0.2,4.7-0.5s2.1-0.9,2.7-1.6s1-1.6,1.2-2.7s0.3-2.3,0.3-3.8c0-0.6-0.1-1.2-0.3-1.7c-0.2-0.5-0.5-1-1-1.4s-1.3-0.7-2.2-0.9  c-0.9-0.2-2.1-0.3-3.6-0.3c-0.6,0-1.2,0-1.9,0c-0.7,0-1.4,0.1-2.2,0.1L108.5,85c0.7,0,1.5,0.1,2.1,0.1  C111.3,85.1,111.9,85.1,112.5,85.1z"></path>	<path class="st0" d="M131.9,73.2l-2.3,16.4h5.2l2-14.1l-3.6-2.3H131.9z M132.4,67.5c0.1-0.7,0.4-1.3,0.8-1.7  c0.5-0.5,1.2-0.7,2.3-0.7h0.3c1.1,0,1.8,0.2,2.1,0.7s0.5,1.1,0.4,1.7l-0.1,0.4c-0.1,0.7-0.4,1.3-0.9,1.7c-0.4,0.5-1.2,0.7-2.3,0.7  h-0.3c-1.1,0-1.8-0.2-2.2-0.7c-0.3-0.5-0.4-1.1-0.3-1.7L132.4,67.5z"></path>	<path class="st0" d="M158.7,91.3c-0.2,1.2-0.5,2.2-1,3.1s-1.1,1.6-2,2.2s-2,1.1-3.3,1.4s-2.8,0.5-4.7,0.5c-0.6,0-1.3,0-2-0.1  c-0.7,0-1.4-0.1-2.1-0.2c-0.7-0.1-1.3-0.2-2-0.3c-0.7-0.1-1.3-0.2-1.8-0.3l0.7-4.9c0.5,0.2,1.1,0.3,1.8,0.4s1.3,0.2,2,0.3  c0.7,0.1,1.4,0.2,2,0.2c0.7,0,1.3,0.1,1.9,0.1c1.2,0,2.1-0.1,2.7-0.2c0.7-0.1,1.2-0.3,1.5-0.6c0.3-0.3,0.6-0.6,0.7-1  c0.1-0.4,0.2-0.8,0.3-1.3l0.2-1.1c-0.8,0.2-1.7,0.4-2.5,0.6c-0.9,0.1-1.8,0.2-2.7,0.2c-1.8,0-3.3-0.2-4.5-0.7c-1.1-0.4-2-1-2.6-1.7  s-1-1.6-1.1-2.6c-0.2-1-0.1-2.1,0-3.2l0.2-1.3c0.2-1.1,0.5-2.2,0.9-3.2s1.1-1.9,1.9-2.6c0.8-0.7,1.9-1.3,3.1-1.7  c1.3-0.4,2.8-0.7,4.7-0.7h0.9c1.8,0,3.3,0.2,4.5,0.7c1.2,0.4,2,1,2.6,1.7s1,1.6,1.1,2.6c0.2,1,0.2,2,0,3.2L158.7,91.3z M149.5,85.5  c1.7,0,3.4-0.2,4.9-0.7l0.5-3.4c0.1-0.5,0.1-1,0.1-1.5s-0.1-0.9-0.3-1.3s-0.6-0.7-1.2-0.9c-0.6-0.2-1.5-0.4-2.6-0.4  c-1.2,0-2.1,0.1-2.8,0.4c-0.7,0.2-1.2,0.6-1.6,1c-0.4,0.5-0.6,1-0.8,1.7c-0.1,0.7-0.2,1.4-0.2,2.3c0,0.4,0,0.8,0.1,1.1  c0.1,0.3,0.3,0.6,0.6,0.9s0.7,0.5,1.2,0.6C148,85.5,148.6,85.5,149.5,85.5z"></path>	<path class="st0" d="M166.1,73.2l-2.3,16.4h5.2l2-14.1l-3.6-2.3H166.1z M166.6,67.5c0.1-0.7,0.4-1.3,0.8-1.7  c0.5-0.5,1.2-0.7,2.3-0.7h0.3c1.1,0,1.8,0.2,2.1,0.7s0.5,1.1,0.4,1.7l-0.1,0.4c-0.1,0.7-0.4,1.3-0.9,1.7c-0.4,0.5-1.2,0.7-2.3,0.7  H169c-1.1,0-1.8-0.2-2.2-0.7c-0.3-0.5-0.4-1.1-0.3-1.7L166.6,67.5z"></path>	<path class="st0" d="M180.8,73.2h5l-0.7,4.6H180l-0.7,5.2c0,0.4-0.1,0.7-0.1,1s0.1,0.5,0.3,0.7s0.5,0.3,0.9,0.5  c0.4,0.1,1,0.1,1.7,0.1c0.5,0,1,0,1.6-0.1s1.1-0.2,1.5-0.3l-0.7,4.8c-0.5,0.1-1,0.2-1.6,0.2c-0.6,0.1-1.2,0.1-1.8,0.1  c-1.5,0-2.7-0.1-3.7-0.4s-1.8-0.7-2.3-1.2c-0.6-0.5-0.9-1.2-1.1-2c-0.2-0.8-0.2-1.7,0-2.8l2.4-17h1.3l3.6,2.3L180.8,73.2z"></path>	<path class="st0" d="M207.7,89.6h-1.3l-2.8-1.8c-0.5,0.4-1,0.8-1.5,1.1c-0.5,0.3-1,0.6-1.6,0.8c-0.5,0.2-1.1,0.3-1.7,0.4  c-0.6,0.1-1.2,0.1-2,0.1c-1.7,0-3-0.2-4.1-0.7c-1.1-0.4-1.9-1-2.5-1.7s-1-1.6-1.1-2.6c-0.2-1-0.2-2.1,0-3.2l0.2-1.3  c0.2-1.1,0.5-2.2,0.9-3.2s1.1-1.9,1.9-2.6c0.8-0.7,1.9-1.3,3.1-1.7c1.3-0.4,2.8-0.7,4.7-0.7h0.9c1.8,0,3.3,0.2,4.5,0.7  c1.2,0.4,2,1,2.6,1.7s1,1.6,1.1,2.6c0.2,1,0.2,2,0,3.2L207.7,89.6z M198,85.5c1,0,2-0.1,2.8-0.4s1.6-0.6,2.4-1.1l0.4-2.6  c0.1-0.5,0.1-1,0.1-1.5s-0.1-0.9-0.3-1.3s-0.6-0.7-1.2-0.9c-0.6-0.2-1.5-0.4-2.6-0.4c-1.2,0-2.1,0.1-2.8,0.4  c-0.7,0.2-1.2,0.6-1.6,1c-0.4,0.5-0.6,1-0.8,1.7c-0.1,0.7-0.2,1.4-0.2,2.2c0,0.4,0,0.7,0.1,1.1c0.1,0.3,0.3,0.7,0.6,0.9  c0.3,0.3,0.7,0.5,1.2,0.7C196.6,85.5,197.2,85.5,198,85.5z"></path>	<path class="st0" d="M216.6,65l3.6,2.3l-3.1,22.3h-5.2l3.4-24.6C215.3,65,216.6,65,216.6,65z"></path>	<path class="st1" d="M63.4,65.4c-5.2,4.8-12.2,7.7-19.9,7.7c-16.3,0-29.4-13.2-29.4-29.5s13.2-29.5,29.4-29.5  C59.8,14.1,73,27.4,73,43.6c0,4.1-0.8,7.9-2.3,11.5l10.7,6.8c2.7-5.5,4.2-11.7,4.2-18.3c0-23.3-18.8-42.1-42-42.1s-42,18.8-42,42.1  s18.8,42.1,42,42.1c7.3,0,14.2-1.9,20.2-5.2l14.7,9.3l6.7-10.6L63.4,65.4L63.4,65.4z"></path>	<path class="st2" d="M36.9,28.3c8.5-3.6,18.3,0.3,21.9,8.8c3.6,8.5-0.3,18.3-8.8,22c-8.5,3.6-18.3-0.3-21.9-8.8  C24.5,41.8,28.5,31.9,36.9,28.3L36.9,28.3z"></path>	<path class="st0" d="M104.8,28.4l-2.1,14.9c-0.5,3.7-1,7.5,6.7,7.5c3.8,0,6.7-0.9,9.5-2.7l2.7-19.7h9.6L127,58.3h-2.4l-5.1-3.2  c-3.7,3.2-7.1,4.4-12.4,4.4c-12.1,0-15.3-6.7-14.1-15l2.3-16.1H104.8L104.8,28.4z"></path>	<path class="st0" d="M170.1,58.3h-2.4l-5.1-3.2c-3.7,3.2-7.1,4.4-12.4,4.4c-12.1,0-15.3-6.7-14.1-14.9l0.4-2.4  c1.3-8.2,5.8-14.9,19.3-14.9h1.7c13.4,0,16.1,6.7,15,14.9L170.1,58.3L170.1,58.3z M161.9,48l0.7-4.7c0.5-3.9,1.1-7.5-7.3-7.5  c-8.4,0-9.7,3.6-9.7,9.7c0,2.7,1.1,5.3,6.9,5.3C156.2,50.8,159.2,49.9,161.9,48L161.9,48z"></path>	<path class="st0" d="M186.4,16.5l6.6,4.2l-5.6,37.6h-9.6l6.2-41.8H186.4L186.4,16.5z"></path>	<path class="st0" d="M202.3,28.4l6.6,4.2l-3.6,25.7h-9.6l4.2-29.9H202.3z M200.8,20.8c0.4-2.4,1.7-4.5,5.7-4.5h0.5  c4,0,4.9,2,4.5,4.5l-0.1,0.7c-0.4,2.4-1.7,4.5-5.7,4.5h-0.5c-4,0-4.9-2-4.5-4.5L200.8,20.8z"></path>	<path class="st0" d="M226.8,28.4h9.2l-1.2,8.4h-9.3l-1.3,9.6c-0.4,2.6-0.3,4.2,5.1,4.2c1.9,0,4-0.2,5.6-0.7l-1.2,8.7  c-1.7,0.4-3.9,0.6-6.1,0.6c-10.7,0-14.1-4.2-13.1-11.7l4.4-31.1h2.4l6.6,4.2L226.8,28.4L226.8,28.4z"></path>	<path class="st0" d="M273.9,61.3c-1.2,8.6-6.6,13.2-19.9,13.2c-4,0-9.1-0.5-12.5-1.5l1.3-9c3.4,1.2,8.5,1.8,12.2,1.8  c8.5,0,9.1-2,9.6-5.7l0.2-1.7c-2.4,0.7-4.9,1.1-7.7,1.1c-13.4,0-16.1-6.7-15-14.9l2.3-16.1h9.6l-2.1,14.9c-0.5,3.9-1,7.5,7,7.5  c2.6,0,4.8-0.3,7.1-1l3-21.5h9.6L273.9,61.3L273.9,61.3z"></path></g></svg>