<svg xmlns="http://www.w3.org/2000/svg" id="Camada_1" viewBox="0 0 460.86 480.41"><defs><style>.cls-1{fill:#fff;}.cls-2{fill:#e94d49;}.cls-2,.cls-3{fill-rule:evenodd;}.cls-3{fill:#121728;}</style></defs><path class="cls-1" d="m441.18,361.01l-19.87-12.7c7.22-3.81,13.11-9.85,16.72-17.33,15.15-31.4,22.83-65.12,22.83-100.21.03-61.63-23.93-119.58-67.45-163.17C349.88,24.01,292,0,230.43,0S110.99,24.01,67.47,67.61C23.96,111.19,0,169.13,0,230.76s23.96,119.57,67.47,163.15c43.52,43.6,101.4,67.61,162.96,67.61,30.85,0,61.43-6.25,89.68-18.22l48.96,31.12c6.22,3.95,13.39,6.01,20.65,6.01,2.8,0,5.62-.31,8.39-.93,9.97-2.23,18.65-8.33,24.12-16.96l30.73-48.46c11.36-17.91,6.09-41.63-11.78-53.06Z"></path><path class="cls-2" d="m321.21,330.07c-23.91,21.94-55.81,35.36-90.78,35.36-74.25,0-134.4-60.3-134.4-134.63s60.19-134.67,134.4-134.67,134.4,60.3,134.4,134.63c0,18.57-3.74,36.25-10.51,52.3l49.03,31.2c12.19-25.26,19.01-53.56,19.01-83.5.05-106.19-85.92-192.26-191.93-192.26S38.5,124.57,38.5,230.76s85.93,192.26,191.93,192.26c33.44,0,64.86-8.61,92.23-23.72l67.06,42.61,30.73-48.46-99.23-63.43v.05Z"></path><path class="cls-3" d="m160.34,260.98c16.62,38.83,61.5,56.74,100.21,40.09,38.71-16.65,56.64-61.61,40.02-100.39-16.63-38.78-61.5-56.69-100.21-40.04v-.05c-38.71,16.65-56.65,61.61-40.02,100.39Z"></path></svg>